<svg xmlns="http://www.w3.org/2000/svg" style="display:none">

  <!-- Téléphone -->
  <symbol id="icon-phone" viewBox="0 0 24 24" fill="none" stroke="currentColor" stroke-width="2" stroke-linecap="round" stroke-linejoin="round">
    <path d="M22 16.92v3a2 2 0 0 1-2.18 2 19.79 19.79 0 0 1-8.63-3.07A19.5 19.5 0 0 1 4.69 12 19.79 19.79 0 0 1 1.61 3.4 2 2 0 0 1 3.6 1.22h3a2 2 0 0 1 2 1.72 12.84 12.84 0 0 0 .7 2.81 2 2 0 0 1-.45 2.11L7.91 8.82a16 16 0 0 0 6.27 6.27l.97-.97a2 2 0 0 1 2.11-.45 12.84 12.84 0 0 0 2.81.7A2 2 0 0 1 22 16.92z"/>
  </symbol>

  <!-- Localisation -->
  <symbol id="icon-pin" viewBox="0 0 24 24" fill="none" stroke="currentColor" stroke-width="2" stroke-linecap="round" stroke-linejoin="round">
    <path d="M20 10c0 6-8 12-8 12S4 16 4 10a8 8 0 0 1 16 0z"/>
    <circle cx="12" cy="10" r="3"/>
  </symbol>

  <!-- E-mail -->
  <symbol id="icon-mail" viewBox="0 0 24 24" fill="none" stroke="currentColor" stroke-width="2" stroke-linecap="round" stroke-linejoin="round">
    <rect width="20" height="16" x="2" y="4" rx="2"/>
    <path d="m22 7-8.97 5.7a1.94 1.94 0 0 1-2.06 0L2 7"/>
  </symbol>

  <!-- Horloge -->
  <symbol id="icon-clock" viewBox="0 0 24 24" fill="none" stroke="currentColor" stroke-width="2" stroke-linecap="round" stroke-linejoin="round">
    <circle cx="12" cy="12" r="10"/>
    <polyline points="12 6 12 12 16 14"/>
  </symbol>

  <!-- Éclair / Réactivité -->
  <symbol id="icon-zap" viewBox="0 0 24 24" fill="none" stroke="currentColor" stroke-width="2" stroke-linecap="round" stroke-linejoin="round">
    <polygon points="13 2 3 14 12 14 11 22 21 10 12 10 13 2"/>
  </symbol>

  <!-- Microscope / Produits pro -->
  <symbol id="icon-flask" viewBox="0 0 24 24" fill="none" stroke="currentColor" stroke-width="2" stroke-linecap="round" stroke-linejoin="round">
    <path d="M9 3h6m-5 0v6L5.5 19a1 1 0 0 0 .9 1.5h11.2a1 1 0 0 0 .9-1.5L14 9V3"/>
    <line x1="6" y1="14" x2="18" y2="14"/>
  </symbol>

  <!-- Cible / Efficacité -->
  <symbol id="icon-target" viewBox="0 0 24 24" fill="none" stroke="currentColor" stroke-width="2" stroke-linecap="round" stroke-linejoin="round">
    <circle cx="12" cy="12" r="10"/>
    <circle cx="12" cy="12" r="6"/>
    <circle cx="12" cy="12" r="2"/>
  </symbol>

  <!-- Poignée de main / Sérieux -->
  <symbol id="icon-handshake" viewBox="0 0 24 24" fill="none" stroke="currentColor" stroke-width="2" stroke-linecap="round" stroke-linejoin="round">
    <path d="M11 12H3V5l4-2 4 4h4l4 2v7h-8z"/>
    <path d="M11 12c0 3 2 5 5 6l3-3-1-9"/>
  </symbol>

  <!-- Bouclier / Certifié -->
  <symbol id="icon-shield" viewBox="0 0 24 24" fill="none" stroke="currentColor" stroke-width="2" stroke-linecap="round" stroke-linejoin="round">
    <path d="M12 22s8-4 8-10V5l-8-3-8 3v7c0 6 8 10 8 10z"/>
  </symbol>

  <!-- Check / Validé -->
  <symbol id="icon-check" viewBox="0 0 24 24" fill="none" stroke="currentColor" stroke-width="2.5" stroke-linecap="round" stroke-linejoin="round">
    <polyline points="20 6 9 17 4 12"/>
  </symbol>

  <!-- Calendrier / 7j/7 -->
  <symbol id="icon-calendar" viewBox="0 0 24 24" fill="none" stroke="currentColor" stroke-width="2" stroke-linecap="round" stroke-linejoin="round">
    <rect width="18" height="18" x="3" y="4" rx="2" ry="2"/>
    <line x1="16" y1="2" x2="16" y2="6"/>
    <line x1="8" y1="2" x2="8" y2="6"/>
    <line x1="3" y1="10" x2="21" y2="10"/>
  </symbol>

  <!-- Étoile -->
  <symbol id="icon-star" viewBox="0 0 24 24" fill="currentColor" stroke="currentColor" stroke-width="1.5" stroke-linecap="round" stroke-linejoin="round">
    <polygon points="12 2 15.09 8.26 22 9.27 17 14.14 18.18 21.02 12 17.77 5.82 21.02 7 14.14 2 9.27 8.91 8.26 12 2"/>
  </symbol>

  <!-- Étoile vide -->
  <symbol id="icon-star-empty" viewBox="0 0 24 24" fill="none" stroke="currentColor" stroke-width="1.5" stroke-linecap="round" stroke-linejoin="round">
    <polygon points="12 2 15.09 8.26 22 9.27 17 14.14 18.18 21.02 12 17.77 5.82 21.02 7 14.14 2 9.27 8.91 8.26 12 2"/>
  </symbol>

  <!-- Trophée -->
  <symbol id="icon-award" viewBox="0 0 24 24" fill="none" stroke="currentColor" stroke-width="2" stroke-linecap="round" stroke-linejoin="round">
    <circle cx="12" cy="8" r="6"/>
    <path d="M15.477 12.89 17 22l-5-3-5 3 1.523-9.11"/>
  </symbol>

  <!-- Clipboard / Rapport -->
  <symbol id="icon-clipboard" viewBox="0 0 24 24" fill="none" stroke="currentColor" stroke-width="2" stroke-linecap="round" stroke-linejoin="round">
    <rect width="8" height="4" x="8" y="2" rx="1" ry="1"/>
    <path d="M16 4h2a2 2 0 0 1 2 2v14a2 2 0 0 1-2 2H6a2 2 0 0 1-2-2V6a2 2 0 0 1 2-2h2"/>
  </symbol>

  <!-- Flèche droite -->
  <symbol id="icon-arrow-right" viewBox="0 0 24 24" fill="none" stroke="currentColor" stroke-width="2" stroke-linecap="round" stroke-linejoin="round">
    <path d="M5 12h14M12 5l7 7-7 7"/>
  </symbol>

  <!-- Plus (FAQ) -->
  <symbol id="icon-plus" viewBox="0 0 24 24" fill="none" stroke="currentColor" stroke-width="2" stroke-linecap="round" stroke-linejoin="round">
    <line x1="12" y1="5" x2="12" y2="19"/>
    <line x1="5" y1="12" x2="19" y2="12"/>
  </symbol>

  <!-- Chevron bas -->
  <symbol id="icon-chevron-down" viewBox="0 0 24 24" fill="none" stroke="currentColor" stroke-width="2.5" stroke-linecap="round" stroke-linejoin="round">
    <polyline points="6 9 12 15 18 9"/>
  </symbol>

  <!-- Loupe / Diagnostic -->
  <symbol id="icon-search" viewBox="0 0 24 24" fill="none" stroke="currentColor" stroke-width="2" stroke-linecap="round" stroke-linejoin="round">
    <circle cx="11" cy="11" r="8"/>
    <line x1="21" y1="21" x2="16.65" y2="16.65"/>
  </symbol>

  <!-- Envoi / Formulaire -->
  <symbol id="icon-send" viewBox="0 0 24 24" fill="none" stroke="currentColor" stroke-width="2" stroke-linecap="round" stroke-linejoin="round">
    <line x1="22" y1="2" x2="11" y2="13"/>
    <polygon points="22 2 15 22 11 13 2 9 22 2"/>
  </symbol>

  <!-- Alerte / Urgence -->
  <symbol id="icon-alert" viewBox="0 0 24 24" fill="none" stroke="currentColor" stroke-width="2" stroke-linecap="round" stroke-linejoin="round">
    <path d="m21.73 18-8-14a2 2 0 0 0-3.48 0l-8 14A2 2 0 0 0 4 21h16a2 2 0 0 0 1.73-3z"/>
    <line x1="12" y1="9" x2="12" y2="13"/>
    <line x1="12" y1="17" x2="12.01" y2="17"/>
  </symbol>

  <!-- Cookie -->
  <symbol id="icon-cookie" viewBox="0 0 24 24" fill="none" stroke="currentColor" stroke-width="2" stroke-linecap="round" stroke-linejoin="round">
    <path d="M12 2a10 10 0 1 0 10 10 4 4 0 0 1-5-5 4 4 0 0 1-5-5"/>
    <path d="M8.5 8.5v.01"/>
    <path d="M16 15.5v.01"/>
    <path d="M12 12v.01"/>
  </symbol>

  <!-- Verrou / Sécurité -->
  <symbol id="icon-lock" viewBox="0 0 24 24" fill="none" stroke="currentColor" stroke-width="2" stroke-linecap="round" stroke-linejoin="round">
    <rect width="18" height="11" x="3" y="11" rx="2" ry="2"/>
    <path d="M7 11V7a5 5 0 0 1 10 0v4"/>
  </symbol>

  <!-- Utilisateur -->
  <symbol id="icon-user" viewBox="0 0 24 24" fill="none" stroke="currentColor" stroke-width="2" stroke-linecap="round" stroke-linejoin="round">
    <path d="M20 21v-2a4 4 0 0 0-4-4H8a4 4 0 0 0-4 4v2"/>
    <circle cx="12" cy="7" r="4"/>
  </symbol>

  <!-- Building / Pro -->
  <symbol id="icon-building" viewBox="0 0 24 24" fill="none" stroke="currentColor" stroke-width="2" stroke-linecap="round" stroke-linejoin="round">
    <rect width="16" height="20" x="4" y="2" rx="2" ry="2"/>
    <path d="M9 22v-4h6v4"/>
    <path d="M8 6h.01M16 6h.01M8 10h.01M16 10h.01M8 14h.01M16 14h.01"/>
  </symbol>

  <!-- Menu hamburger -->
  <symbol id="icon-menu" viewBox="0 0 24 24" fill="none" stroke="currentColor" stroke-width="2" stroke-linecap="round" stroke-linejoin="round">
    <line x1="4" y1="6" x2="20" y2="6"/>
    <line x1="4" y1="12" x2="20" y2="12"/>
    <line x1="4" y1="18" x2="20" y2="18"/>
  </symbol>

  <!-- ── NUISIBLES ─────────────────────────────── -->

  <!-- Rat / Souris -->
  <symbol id="icon-pest-rat" viewBox="0 0 24 24" fill="none" stroke="currentColor" stroke-width="1.5" stroke-linecap="round" stroke-linejoin="round">
    <ellipse cx="10" cy="14" rx="5.5" ry="4"/>
    <circle cx="9" cy="12.5" r=".6" fill="currentColor" stroke="none"/>
    <path d="M15.5 12.5c1.5-.5 3-.2 3 1.5s-1.5 2-3 2"/>
    <path d="M10 7c0-2 1.5-3.5 3.5-3s3 2 3 4c0 .5-.1 1-.2 1.5"/>
    <path d="M10 18c0 1.5-1 3-2.5 3.5"/>
  </symbol>

  <!-- Cafard / Blatte -->
  <symbol id="icon-pest-bug" viewBox="0 0 24 24" fill="none" stroke="currentColor" stroke-width="1.5" stroke-linecap="round" stroke-linejoin="round">
    <ellipse cx="12" cy="13" rx="3" ry="5.5"/>
    <circle cx="12" cy="5.5" r="2"/>
    <path d="M10 4.5 7.5 2.5M14 4.5l2.5-2"/>
    <path d="M9 9.5 5 8M15 9.5l4-1.5M9 13H5M15 13h4M9 16.5 5 19M15 16.5l4 2.5"/>
  </symbol>

  <!-- Punaise de lit -->
  <symbol id="icon-pest-bed" viewBox="0 0 24 24" fill="none" stroke="currentColor" stroke-width="1.5" stroke-linecap="round" stroke-linejoin="round">
    <path d="M3 19V9a2 2 0 0 1 2-2h14a2 2 0 0 1 2 2v10"/>
    <path d="M3 14h18"/>
    <path d="M7 14V9"/>
    <rect x="5" y="9" width="4" height="5" rx="1"/>
    <circle cx="17" cy="11" r="1.5" fill="currentColor" stroke="none" opacity=".6"/>
    <circle cx="14.5" cy="13" r="1" fill="currentColor" stroke="none" opacity=".5"/>
  </symbol>

  <!-- Fourmi -->
  <symbol id="icon-pest-ant" viewBox="0 0 24 24" fill="none" stroke="currentColor" stroke-width="1.5" stroke-linecap="round" stroke-linejoin="round">
    <circle cx="12" cy="5" r="2"/>
    <ellipse cx="12" cy="11" rx="2.5" ry="2"/>
    <ellipse cx="12" cy="17.5" rx="3" ry="2.5"/>
    <path d="M10 4.5 8 2.5M14 4.5l2-2"/>
    <path d="M9.5 10 6 8.5M14.5 10 18 8.5M9.5 12.5 6 14M14.5 12.5 18 14"/>
  </symbol>

  <!-- Guêpe / Frelon -->
  <symbol id="icon-pest-wasp" viewBox="0 0 24 24" fill="none" stroke="currentColor" stroke-width="1.5" stroke-linecap="round" stroke-linejoin="round">
    <ellipse cx="12" cy="14" rx="3.5" ry="5"/>
    <circle cx="12" cy="6.5" r="2.5"/>
    <path d="M8.5 12.5c-2 0-4 .5-5-1.5M15.5 12.5c2 0 4 .5 5-1.5"/>
    <path d="M9 9.5C7 8 5 8 4 9.5M15 9.5c2-1.5 4-1.5 5 0"/>
    <path d="M10.5 8.5 9.5 6.5M13.5 8.5l1-2"/>
  </symbol>

  <!-- Contrat / Pro -->
  <symbol id="icon-contract" viewBox="0 0 24 24" fill="none" stroke="currentColor" stroke-width="1.5" stroke-linecap="round" stroke-linejoin="round">
    <path d="M14 2H6a2 2 0 0 0-2 2v16a2 2 0 0 0 2 2h12a2 2 0 0 0 2-2V8z"/>
    <polyline points="14 2 14 8 20 8"/>
    <line x1="16" y1="13" x2="8" y2="13"/>
    <line x1="16" y1="17" x2="8" y2="17"/>
    <polyline points="10 9 9 9 8 9"/>
    <circle cx="17" cy="18" r="3" fill="white" stroke="currentColor"/>
    <path d="M15.5 18 17 19.5 19.5 17"/>
  </symbol>

</svg>
